<svg id="a2768694-fe27-4742-9414-7cc5db74439b" data-name="Capa 1" xmlns="http://www.w3.org/2000/svg" width="270.7" height="99.3" viewBox="0 0 270.7 99.3">
  <defs>
    <style>
      .b07bc2c1-1245-412b-9676-b615cd361a8d {
        fill: #f7f7f7;
      }
    </style>
  </defs>
  <title>derecha</title>
  <path class="b07bc2c1-1245-412b-9676-b615cd361a8d" d="M5.9,65.4c-9.8-.2-6.5-6.8,3.7-7.5L75,55.6a640.9,640.9,0,0,0,86.1-10.5l1.4-.3A388.3,388.3,0,0,1,241.7,43c-23.6-14.9-43.9-28.7-54.5-39.2l10.2,2.9c-4-3.5-8.2-6.3-13.5-6.4,10.1-2.4,29.4,9.6,53.3,26.8l31.4,22.2a5.2,5.2,0,0,1,2.1,4.7c-1,9.6-7,15.6-19.2,17.3l-5,1.1c-27.6,8-55.9,14.9-72.4,26.9l1.3-4.1-2.8.8,17.8-14.9-1.4-.7-8.9,6.2c10.3-10.8,26.4-19.3,48.1-25.5a649.5,649.5,0,0,0-91.1,4.8c-23.5,4.2-52.2,6.6-84.9,7.4L9.1,75.2l4.5-3.1A37.6,37.6,0,0,0,2,72c8.1-1.7,16.7-2.9,27-1.8C27,68,18.3,67.5,4.7,68.6l-4.3.3C3.4,67.8,5.6,66.7,5.9,65.4Z"/>
</svg>
