<svg id="a77bdc35-4c69-474d-b260-f80e00fc4b53" data-name="Capa 1" xmlns="http://www.w3.org/2000/svg" width="270.7" height="99.3" viewBox="0 0 270.7 99.3">
  <defs>
    <style>
      .a1c96149-4685-4e17-8d1a-9d126cae4025 {
        fill: #f7f7f7;
      }
    </style>
  </defs>
  <title>izquierda</title>
  <path class="a1c96149-4685-4e17-8d1a-9d126cae4025" d="M264.9,65.4c9.7-.2,6.5-6.8-3.7-7.5l-65.5-2.3a639.4,639.4,0,0,1-86-10.5l-1.5-.3A387.5,387.5,0,0,0,29.1,43C52.6,28.1,72.9,14.3,83.6,3.8L73.3,6.7C77.3,3.2,81.5.4,86.8.3c-10-2.4-29.3,9.6-53.3,26.8L2.2,49.3A5.2,5.2,0,0,0,0,54c1,9.6,7,15.6,19.2,17.3l5.1,1.1c27.6,8,55.8,14.9,72.4,26.9l-1.4-4.1,2.9.8L80.3,81.1l1.5-.7,8.9,6.2C80.3,75.8,64.3,67.3,42.5,61.1a648.7,648.7,0,0,1,91.1,4.8c23.6,4.2,52.2,6.6,84.9,7.4l43.1,1.9-4.5-3.1a38.2,38.2,0,0,1,11.7-.1c-8.2-1.7-16.8-2.9-27.1-1.8,2.1-2.2,10.7-2.7,24.3-1.6l4.4.3C267.3,67.8,265.1,66.7,264.9,65.4Z" transform="translate(0 0)"/>
</svg>
